<svg xmlns="http://www.w3.org/2000/svg" viewBox="0 0 1000 560">
<!-- Мальовнича хмара Petale (один тон для всього сайту) -->
<defs><filter id="b3" filterUnits="userSpaceOnUse" x="-60" y="-60" width="1120" height="680"><feGaussianBlur stdDeviation="3"/></filter><filter id="b12" filterUnits="userSpaceOnUse" x="-60" y="-60" width="1120" height="680"><feGaussianBlur stdDeviation="12"/></filter><filter id="b18" filterUnits="userSpaceOnUse" x="-60" y="-60" width="1120" height="680"><feGaussianBlur stdDeviation="18"/></filter>
<linearGradient id="base" gradientUnits="userSpaceOnUse" x1="0" y1="154" x2="0" y2="560">
  <stop offset="0" stop-color="#fff1ed"/><stop offset=".42" stop-color="#f7d0cb"/><stop offset=".78" stop-color="#eaa9a8"/><stop offset="1" stop-color="#d98c93"/>
</linearGradient>
<radialGradient id="glow" cx=".72" cy=".12" r=".62">
  <stop offset="0" stop-color="#ffe3c6" stop-opacity=".8"/><stop offset="1" stop-color="#ffe3c6" stop-opacity="0"/>
</radialGradient>
<mask id="m" maskUnits="userSpaceOnUse" x="0" y="0" width="1000" height="560"><g fill="#fff" filter="url(#b3)"><circle cx="110" cy="399" r="65"/><circle cx="190" cy="400" r="58"/><circle cx="257" cy="389" r="69"/><circle cx="323" cy="399" r="61"/><circle cx="385" cy="393" r="64"/><circle cx="463" cy="390" r="76"/><circle cx="558" cy="403" r="52"/><circle cx="621" cy="401" r="54"/><circle cx="681" cy="388" r="77"/><circle cx="767" cy="394" r="75"/><circle cx="845" cy="404" r="52"/><circle cx="808" cy="321" r="87"/><circle cx="694" cy="269" r="102"/><circle cx="421" cy="265" r="130"/><circle cx="410" cy="243" r="121"/><circle cx="670" cy="263" r="109"/><circle cx="535" cy="236" r="128"/><circle cx="413" cy="260" r="130"/><circle cx="310" cy="275" r="111"/><circle cx="521" cy="185" r="126"/><circle cx="563" cy="188" r="133"/><circle cx="428" cy="189" r="126"/></g></mask>
<filter id="paint" filterUnits="userSpaceOnUse" x="0" y="0" width="1000" height="560">
  <feTurbulence type="fractalNoise" baseFrequency=".018" numOctaves="3" seed="17" result="t"/>
  <feDisplacementMap in="SourceGraphic" in2="t" scale="26" xChannelSelector="R" yChannelSelector="G" result="d"/>
  <feTurbulence type="fractalNoise" baseFrequency=".9" numOctaves="2" seed="22" result="g"/>
  <feColorMatrix in="g" type="matrix" values="0 0 0 0 .55  0 0 0 0 .3  0 0 0 0 .33  .25 0 0 0 -.08" result="gc"/>
  <feComposite in="gc" in2="d" operator="in" result="gm"/>
  <feMerge><feMergeNode in="d"/><feMergeNode in="gm"/></feMerge>
</filter>
</defs>
<g filter="url(#paint)"><g mask="url(#m)">
<rect width="1000" height="560" fill="url(#base)"/>
<circle cx="118" cy="428" r="55" fill="#c4737f" opacity=".24" filter="url(#b12)"/><circle cx="197" cy="426" r="49" fill="#c4737f" opacity=".24" filter="url(#b12)"/><circle cx="266" cy="420" r="58" fill="#c4737f" opacity=".24" filter="url(#b12)"/><circle cx="330" cy="426" r="52" fill="#c4737f" opacity=".24" filter="url(#b12)"/><circle cx="393" cy="422" r="54" fill="#c4737f" opacity=".24" filter="url(#b12)"/><circle cx="472" cy="425" r="65" fill="#c4737f" opacity=".24" filter="url(#b12)"/><circle cx="564" cy="426" r="44" fill="#c4737f" opacity=".24" filter="url(#b12)"/><circle cx="627" cy="425" r="46" fill="#c4737f" opacity=".24" filter="url(#b12)"/><circle cx="691" cy="422" r="65" fill="#c4737f" opacity=".24" filter="url(#b12)"/><circle cx="776" cy="427" r="64" fill="#c4737f" opacity=".24" filter="url(#b12)"/><circle cx="851" cy="428" r="44" fill="#c4737f" opacity=".24" filter="url(#b12)"/><circle cx="818" cy="360" r="74" fill="#c4737f" opacity=".24" filter="url(#b12)"/><circle cx="707" cy="316" r="87" fill="#c4737f" opacity=".24" filter="url(#b12)"/><circle cx="436" cy="323" r="110" fill="#c4737f" opacity=".24" filter="url(#b12)"/><circle cx="424" cy="298" r="103" fill="#c4737f" opacity=".24" filter="url(#b12)"/><circle cx="683" cy="313" r="93" fill="#c4737f" opacity=".24" filter="url(#b12)"/><circle cx="551" cy="294" r="109" fill="#c4737f" opacity=".24" filter="url(#b12)"/><circle cx="429" cy="319" r="110" fill="#c4737f" opacity=".24" filter="url(#b12)"/><circle cx="323" cy="325" r="94" fill="#c4737f" opacity=".24" filter="url(#b12)"/><circle cx="536" cy="241" r="107" fill="#c4737f" opacity=".24" filter="url(#b12)"/><circle cx="579" cy="248" r="113" fill="#c4737f" opacity=".24" filter="url(#b12)"/><circle cx="443" cy="245" r="107" fill="#c4737f" opacity=".24" filter="url(#b12)"/>
<circle cx="96" cy="378" r="39" fill="#fff6f2" opacity=".6" filter="url(#b18)"/><circle cx="177" cy="382" r="35" fill="#fff6f2" opacity=".6" filter="url(#b18)"/><circle cx="242" cy="367" r="41" fill="#fff6f2" opacity=".6" filter="url(#b18)"/><circle cx="310" cy="380" r="36" fill="#fff6f2" opacity=".6" filter="url(#b18)"/><circle cx="371" cy="373" r="38" fill="#fff6f2" opacity=".6" filter="url(#b18)"/><circle cx="446" cy="366" r="46" fill="#fff6f2" opacity=".6" filter="url(#b18)"/><circle cx="547" cy="386" r="31" fill="#fff6f2" opacity=".6" filter="url(#b18)"/><circle cx="609" cy="383" r="33" fill="#fff6f2" opacity=".6" filter="url(#b18)"/><circle cx="665" cy="363" r="46" fill="#fff6f2" opacity=".6" filter="url(#b18)"/><circle cx="750" cy="370" r="45" fill="#fff6f2" opacity=".6" filter="url(#b18)"/><circle cx="833" cy="387" r="31" fill="#fff6f2" opacity=".6" filter="url(#b18)"/><circle cx="789" cy="293" r="52" fill="#fff6f2" opacity=".6" filter="url(#b18)"/><circle cx="672" cy="237" r="61" fill="#fff6f2" opacity=".6" filter="url(#b18)"/><circle cx="392" cy="223" r="78" fill="#fff6f2" opacity=".6" filter="url(#b18)"/><circle cx="383" cy="204" r="73" fill="#fff6f2" opacity=".6" filter="url(#b18)"/><circle cx="646" cy="228" r="66" fill="#fff6f2" opacity=".6" filter="url(#b18)"/><circle cx="507" cy="195" r="77" fill="#fff6f2" opacity=".6" filter="url(#b18)"/><circle cx="384" cy="219" r="78" fill="#fff6f2" opacity=".6" filter="url(#b18)"/><circle cx="285" cy="239" r="67" fill="#fff6f2" opacity=".6" filter="url(#b18)"/><circle cx="494" cy="145" r="75" fill="#fff6f2" opacity=".6" filter="url(#b18)"/><circle cx="534" cy="145" r="80" fill="#fff6f2" opacity=".6" filter="url(#b18)"/><circle cx="400" cy="148" r="75" fill="#fff6f2" opacity=".6" filter="url(#b18)"/>
<rect width="1000" height="560" fill="url(#glow)"/>
</g></g>
</svg>
